<svg xmlns="http://www.w3.org/2000/svg" height="24" viewBox="0 -960 960 960" width="24"><path d="M480-55.694 354.376-180.001H180.001v-174.375L55.694-480l124.307-125.624v-174.375h174.375L480-904.306l125.624 124.307h174.375v174.375L904.306-480 779.999-354.376v174.375H605.624L480-55.694Zm0-239.692q76.461 0 130.538-53.999 54.076-54 54.076-130.615 0-76.615-53.999-130.615-54-53.999-130.615-53.999v369.228ZM480-140l100-100h140v-140l100-100-100-100v-140H580L480-820 380-720H240v140L140-480l100 100v140h140l100 100Zm0-340Z"/></svg>